<svg width="546" height="102" viewBox="0 0 546 102" fill="none" xmlns="http://www.w3.org/2000/svg">
<g filter="url(#filter0_d_1_5)">
<path d="M22.16 44.408C22.16 47.672 22.352 50.264 22.736 52.184C23.12 54.104 23.952 55.192 25.232 55.448H25.136L26 55.544C27.6 55.544 28.784 55.224 29.552 54.584C30.32 53.944 30.8 53.112 30.992 52.088C31.248 51.064 31.472 49.624 31.664 47.768C31.792 45.848 32.016 44.088 32.336 42.488C33.68 42.68 34.992 42.776 36.272 42.776L40.784 42.68C43.216 42.68 45.168 42.872 46.64 43.256C46.768 43.576 46.832 43.864 46.832 44.12C46.896 44.312 46.992 44.568 47.12 44.888L48.56 45.176C49.456 47.672 49.904 50.232 49.904 52.856C49.904 57.336 48.848 61.272 46.736 64.664C44.688 68.056 41.808 70.648 38.096 72.44C34.384 74.296 30.16 75.224 25.424 75.224C22.096 75.224 18.896 74.584 15.824 73.304C12.752 72.024 10.16 70.2 8.048 67.832C6 65.4 4.816 62.584 4.496 59.384C4.176 52.984 4.016 46.104 4.016 38.744L4.112 24.056C4.176 23.096 4.208 21.592 4.208 19.544L4.112 18.488C4.112 16.312 4.528 14.36 5.36 12.632V12.728C6.832 8.632 9.008 5.56 11.888 3.512C14.832 1.4 18.8 0.343994 23.792 0.343994C28.208 0.343994 32.464 1.52799 36.56 3.89599C40.656 6.26399 43.952 9.4 46.448 13.304C48.944 17.144 50.192 21.176 50.192 25.4C50.192 27.896 49.68 30.552 48.656 33.368C46.8 33.816 44.784 34.04 42.608 34.04C39.792 34.04 36.624 33.688 33.104 32.984L32.912 31.448C32.016 31.32 31.472 31.096 31.28 30.776C31.088 30.456 30.96 29.848 30.896 28.952C30.896 27.992 30.864 27.288 30.8 26.84C30.736 26.328 30.672 25.464 30.608 24.248C30.608 22.968 30.352 22.008 29.84 21.368C29.328 20.664 28.464 20.312 27.248 20.312C26.544 20.312 25.744 20.44 24.848 20.696C24.016 20.952 23.44 21.24 23.12 21.56C22.992 21.688 22.8 23.32 22.544 26.456C22.288 29.528 22.16 33.88 22.16 39.512V44.408ZM25.712 17.432C27.44 17.432 28.72 17.88 29.552 18.776C30.384 19.608 30.928 20.632 31.184 21.848C31.44 23.064 31.632 24.696 31.76 26.744C31.76 27.128 31.792 27.672 31.856 28.376C31.92 29.08 31.984 29.688 32.048 30.2C34.864 30.84 37.744 31.16 40.688 31.16C42.48 31.16 44.272 30.968 46.064 30.584C46.896 28.344 47.312 25.976 47.312 23.48C47.312 19.448 46.224 15.736 44.048 12.344C41.872 8.952 38.96 6.264 35.312 4.27999C31.728 2.296 27.888 1.304 23.792 1.304C19.44 1.304 15.792 2.232 12.848 4.088C9.904 5.88 7.696 8.856 6.224 13.016C5.456 14.872 5.072 16.632 5.072 18.296C5.072 18.872 5.104 19.256 5.168 19.448C5.168 21.432 5.136 22.904 5.072 23.864L4.976 38.744C4.976 46.04 5.136 52.888 5.456 59.288C5.84 63.64 7.792 66.904 11.312 69.08C14.832 71.256 18.896 72.344 23.504 72.344C27.984 72.344 32.016 71.48 35.6 69.752C39.184 67.96 41.968 65.464 43.952 62.264C46 59 47.024 55.224 47.024 50.936C47.024 48.504 46.672 46.232 45.968 44.12C44.752 43.8 43.088 43.64 40.976 43.64L35.888 43.736C35.184 43.736 34.256 43.672 33.104 43.544C32.848 44.44 32.656 45.88 32.528 47.864C32.4 49.72 32.176 51.256 31.856 52.472C31.6 53.624 30.992 54.584 30.032 55.352C29.136 56.12 27.76 56.504 25.904 56.504C23.152 56.504 21.328 55.096 20.432 52.28C19.6 49.4 19.184 45.656 19.184 41.048V37.592C19.184 31.576 19.344 27.032 19.664 23.96C19.984 20.888 20.272 19.224 20.528 18.968C21.04 18.456 21.808 18.072 22.832 17.816C23.856 17.56 24.816 17.432 25.712 17.432ZM52.331 26.84C53.291 24.792 55.179 23.256 57.995 22.232C60.875 21.208 64.107 20.696 67.691 20.696C68.203 20.76 69.387 20.792 71.243 20.792L73.547 20.696C75.979 20.696 78.347 21.08 80.651 21.848C82.955 22.616 84.875 23.736 86.411 25.208H86.315C86.507 25.464 86.795 25.816 87.179 26.264C87.563 26.648 87.915 26.936 88.235 27.128L88.139 27.032C89.867 28.184 91.019 30.488 91.595 33.944C92.235 37.4 92.555 41.688 92.555 46.808C92.555 51.352 92.267 56.056 91.691 60.92C91.115 65.784 90.315 68.792 89.291 69.944C87.947 71.864 86.123 73.176 83.819 73.88C81.515 74.584 78.827 74.936 75.755 74.936C72.491 74.936 69.835 74.84 67.787 74.648C65.803 74.456 63.819 73.912 61.835 73.016C59.915 72.184 58.059 70.84 56.267 68.984L55.403 68.12C53.419 66.264 52.075 63.896 51.371 61.016C50.667 58.072 50.315 54.648 50.315 50.744V47.288L50.411 44.024C50.411 43.256 50.379 42.52 50.315 41.816C50.251 41.112 50.219 40.472 50.219 39.896C50.219 37.144 50.283 35.064 50.411 33.656C50.539 32.248 51.019 30.552 51.851 28.568H51.755C51.819 28.184 51.883 27.8 51.947 27.416C52.075 27.032 52.203 26.776 52.331 26.648V26.744L52.235 27.032L52.331 26.84ZM51.275 43.832V50.936C51.275 56.568 52.203 61.24 54.059 64.952C55.979 68.6 59.403 70.84 64.331 71.672L68.843 71.768C71.019 71.896 72.715 71.96 73.931 71.96C76.939 71.96 79.499 71.64 81.611 71C83.723 70.36 85.387 69.176 86.603 67.448C87.691 66.36 88.395 63.928 88.715 60.152C89.099 56.376 89.419 51.288 89.675 44.888C89.675 44.312 89.611 42.264 89.483 38.744C89.355 35.16 88.971 32.312 88.331 30.2C87.755 28.024 86.891 26.584 85.739 25.88C82.859 23.064 78.667 21.656 73.163 21.656L69.515 21.752C68.683 21.752 68.043 21.72 67.595 21.656C64.331 21.656 61.323 22.136 58.571 23.096C55.819 24.056 54.027 25.432 53.195 27.224C52.491 29.72 51.979 31.928 51.659 33.848C51.339 35.768 51.179 37.752 51.179 39.8L51.275 43.832ZM70.955 36.152C75.435 36.152 77.675 39.48 77.675 46.136C77.675 48.888 77.547 51.096 77.291 52.76C77.035 54.36 76.363 55.672 75.275 56.696C74.187 57.72 72.523 58.232 70.283 58.232C68.363 58.232 66.795 57.816 65.579 56.984C64.363 56.152 63.755 54.808 63.755 52.952C63.819 52.12 63.851 50.648 63.851 48.536C63.851 45.592 63.915 43.32 64.043 41.72C64.235 40.056 64.619 39 65.195 38.552C66.475 36.952 68.395 36.152 70.955 36.152ZM67.691 41.24C67.179 41.56 66.859 43.032 66.731 45.656C66.667 48.216 66.635 51.32 66.635 54.968C66.635 55.992 66.955 56.632 67.595 56.888C68.235 57.144 69.131 57.272 70.283 57.272C74.187 57.272 76.139 55.928 76.139 53.24C76.523 49.784 76.715 47.288 76.715 45.752C76.715 43.64 76.459 42.008 75.947 40.856C75.499 39.704 74.411 39.128 72.683 39.128C72.299 39.128 71.595 39.192 70.571 39.32H70.667C69.451 39.64 68.523 40.216 67.883 41.048L67.691 41.24ZM135.394 11.672C135.394 17.496 135.522 25.976 135.778 37.112C135.842 39.864 135.906 43.256 135.97 47.288C136.034 51.32 136.066 55.96 136.066 61.208C136.066 67.096 136.034 71.288 135.97 73.784L130.21 73.88C128.93 73.944 127.042 73.976 124.546 73.976C123.394 73.976 122.498 73.848 121.858 73.592C121.282 73.336 120.994 72.824 120.994 72.056V71.864L119.746 71.768L119.554 71.576C117.89 72.984 115.81 73.688 113.314 73.688C110.498 73.688 108.002 73.176 105.826 72.152C103.714 71.128 101.954 69.784 100.546 68.12C95.4903 64.088 92.9623 55.928 92.9623 43.64C92.9623 38.712 93.6663 34.36 95.0742 30.584C96.4823 26.808 98.5943 24.376 101.41 23.288C103.778 22.328 106.754 21.848 110.338 21.848C114.178 21.848 117.122 22.392 119.17 23.48L118.978 13.688C118.978 12.216 119.042 10.456 119.17 8.408L119.458 4.568V3.512C119.458 3.192 120.226 2.872 121.762 2.55199C123.362 2.23199 125.09 2.07199 126.946 2.07199C129.442 2.07199 131.618 2.264 133.474 2.648V4.27999L135.394 4.568V11.672ZM133.09 70.904C133.154 68.664 133.186 65.176 133.186 60.44C133.186 55.256 133.154 50.648 133.09 46.616C133.026 42.52 132.962 39.064 132.898 36.248C132.642 24.728 132.514 15.896 132.514 9.752V3.41599C131.17 3.16 129.314 3.032 126.946 3.032C125.346 3.032 123.842 3.096 122.434 3.224C121.09 3.288 120.418 3.384 120.418 3.512V4.568L120.226 7.928C120.098 9.144 120.034 11.064 120.034 13.688V18.104C120.034 20.984 120.066 23.416 120.13 25.4C119.874 24.696 118.786 24.088 116.866 23.576C114.946 23.064 112.738 22.808 110.242 22.808C107.362 22.808 104.514 23.256 101.698 24.152C99.0103 25.112 97.0263 27.384 95.7463 30.968C94.5303 34.552 93.9223 38.776 93.9223 43.64C94.0503 49.144 94.4983 53.784 95.2663 57.56C96.0983 61.336 97.7943 64.504 100.354 67.064C102.978 69.56 106.818 70.808 111.874 70.808C115.138 70.808 117.506 69.4 118.978 66.584C119.042 66.328 119.17 66.2 119.362 66.2C119.618 66.2 119.842 66.936 120.034 68.408C120.226 69.88 120.258 70.68 120.13 70.808C121.602 71 123.234 71.096 125.026 71.096L129.25 71C130.146 70.936 131.426 70.904 133.09 70.904ZM114.658 33.944C116.578 33.944 117.922 34.2 118.69 34.712C119.458 35.16 119.938 36.088 120.13 37.496C120.386 38.904 120.514 41.4 120.514 44.984C120.514 48.184 120.354 50.744 120.034 52.664C119.778 54.584 119.138 56.12 118.114 57.272C117.154 58.36 115.65 58.904 113.602 58.904C110.978 58.904 108.866 57.656 107.266 55.16C105.666 52.664 104.866 49.72 104.866 46.328C104.866 43.832 105.09 41.976 105.538 40.76C106.242 36.216 109.282 33.944 114.658 33.944ZM119.554 41.336C119.554 39.608 119.362 38.424 118.978 37.784C118.658 37.144 117.858 36.824 116.578 36.824C111.714 36.824 108.994 38.808 108.418 42.776L108.322 42.968C107.938 43.864 107.746 45.208 107.746 47C107.746 54.296 109.698 57.944 113.602 57.944C115.394 57.944 116.706 57.432 117.538 56.408C118.434 55.32 118.978 53.912 119.17 52.184C119.426 50.392 119.554 47.992 119.554 44.984V41.336ZM154.2 51.608C154.2 53.272 154.296 54.648 154.488 55.736C154.744 56.76 155.224 57.88 155.928 59.096V59.288C156.76 59.736 157.784 59.96 159 59.96C160.344 59.96 161.464 59.352 162.36 58.136C163.256 56.856 163.704 54.968 163.704 52.472V51.512C165.112 51.64 166.168 51.704 166.872 51.704L170.232 51.608C170.936 51.544 172.024 51.512 173.496 51.512C174.584 51.512 176.024 51.672 177.816 51.992L177.72 53.624L179.736 53.912C179.736 60.824 178.968 65.784 177.432 68.792C175.96 71.8 174.04 73.592 171.672 74.168C169.368 74.808 165.816 75.128 161.016 75.128C157.176 75.128 154.104 74.84 151.8 74.264C149.56 73.752 147.64 72.536 146.04 70.616C143.096 68.184 140.92 64.696 139.512 60.152C138.104 55.608 137.4 50.68 137.4 45.368C137.4 39.16 138.136 34.072 139.608 30.104C140.952 27.032 143.288 24.696 146.616 23.096C149.944 21.432 153.656 20.6 157.752 20.6C162.68 20.6 166.808 21.656 170.136 23.768C173.528 25.88 176.024 28.728 177.624 32.312C179.288 35.832 180.12 39.704 180.12 43.928C180.12 44.312 180.024 45.944 179.832 48.824C178.616 49.144 175.384 49.432 170.136 49.688C164.952 49.944 160.344 50.072 156.312 50.072C155.352 50.072 154.648 50.04 154.2 49.976V51.608ZM151.32 46.904C152.088 47.096 154.296 47.192 157.944 47.192C161.464 47.192 165.272 47.096 169.368 46.904C173.464 46.648 176.024 46.392 177.048 46.136C177.176 44.216 177.24 42.84 177.24 42.008C177.24 35.608 175.8 30.616 172.92 27.032C170.104 23.384 165.048 21.56 157.752 21.56C153.912 21.56 150.36 22.36 147.096 23.96C143.896 25.496 141.688 27.64 140.472 30.392C139 34.36 138.264 39.672 138.264 46.328C138.264 52.984 139.384 58.744 141.624 63.608C143.864 68.472 147.352 71.256 152.088 71.96L156.312 72.056C158.488 72.184 160.184 72.248 161.4 72.248C164.408 72.248 166.968 71.928 169.08 71.288C171.256 70.648 172.952 69.464 174.168 67.736C175 67.032 175.576 65.56 175.896 63.32C176.216 61.016 176.536 57.496 176.856 52.76C175.896 52.568 174.648 52.472 173.112 52.472L169.368 52.568C168.6 52.632 167.544 52.664 166.2 52.664C165.432 52.664 164.952 52.632 164.76 52.568V53.336C164.76 55.832 164.184 57.72 163.032 59C161.944 60.28 160.6 60.92 159 60.92C154.072 60.92 151.512 56.824 151.32 48.632V46.904ZM166.68 39.32C166.68 39.512 166.456 39.608 166.008 39.608C165.688 39.608 165.048 39.576 164.088 39.512C163.128 39.448 161.976 39.416 160.632 39.416L154.392 39.512C153.176 39.512 152.376 39.448 151.992 39.32C151.608 39.192 151.416 38.904 151.416 38.456C151.416 33.528 154.136 31.064 159.576 31.064C160.792 31.064 161.912 31.384 162.936 32.024C164.088 32.6 164.984 33.464 165.624 34.616C166.328 35.768 166.68 36.984 166.68 38.264V39.32ZM164.376 34.712C163.544 34.2 162.584 33.944 161.496 33.944C159.256 33.944 157.624 34.328 156.6 35.096C155.64 35.864 154.968 37.016 154.584 38.552L156.408 38.456H160.632L164.76 38.552L165.72 38.648V38.264C165.72 36.792 165.304 35.64 164.472 34.808L164.376 34.712ZM200.139 48.92C200.651 48.984 201.355 49.016 202.251 49.016C203.467 49.016 205.035 48.888 206.955 48.632C208.747 48.312 210.571 48.152 212.427 48.152C213.003 48.152 213.483 48.28 213.867 48.536C214.251 48.792 214.731 49.336 215.307 50.168C215.755 50.168 216.075 50.296 216.267 50.552C216.523 50.744 216.747 51.064 216.939 51.512C217.195 51.96 217.451 52.344 217.707 52.664C218.987 53.752 220.427 54.296 222.027 54.296C223.627 54.296 224.907 53.624 225.867 52.28L225.771 52.376C226.283 51.48 226.539 50.52 226.539 49.496C226.539 47.96 225.963 46.936 224.811 46.424C223.723 45.912 222.315 45.656 220.587 45.656C219.627 45.656 218.091 45.88 215.979 46.328C215.659 45.688 215.371 44.984 215.115 44.216L214.059 44.408C213.227 43 212.811 41.112 212.811 38.744C212.811 37.976 212.875 36.824 213.003 35.288L213.099 31.928C213.099 30.904 213.067 30.04 213.003 29.336C214.283 28.888 216.171 28.6 218.667 28.472C221.291 28.344 223.243 28.024 224.523 27.512C225.803 27 226.443 25.848 226.443 24.056C226.443 23.032 226.347 22.328 226.155 21.944C225.963 21.496 225.387 21.272 224.427 21.272C222.827 21.272 221.163 21.848 219.435 23C217.771 24.088 216.683 25.368 216.171 26.84C215.083 27.032 212.267 27.128 207.723 27.128H203.115L201.867 26.936V25.208L199.947 25.016L199.851 21.752C199.787 21.24 199.755 20.344 199.755 19.064C199.755 17.144 199.979 15.704 200.427 14.744L200.331 14.84C201.547 10.68 204.203 7.512 208.299 5.336C212.395 3.096 216.971 1.976 222.027 1.976C226.635 1.976 230.827 3 234.603 5.048C238.443 7.032 241.323 9.56 243.243 12.632C243.691 13.464 244.043 14.616 244.299 16.088C244.555 17.496 244.683 18.808 244.683 20.024L244.779 26.456C244.843 27.928 244.875 30.008 244.875 32.696C244.875 36.408 244.779 40.088 244.587 43.736C244.459 48.6 244.395 52.152 244.395 54.392C243.819 67.448 236.811 73.976 223.371 73.976C219.147 73.976 215.051 73.336 211.083 72.056V72.152C209.099 71.576 207.467 70.648 206.187 69.368C204.267 67.448 202.891 65.784 202.059 64.376C201.291 62.968 200.779 61.208 200.523 59.096C200.267 56.92 200.139 53.528 200.139 48.92ZM221.451 71.096C226.315 71.096 230.219 70.296 233.163 68.696C236.171 67.032 238.443 64.472 239.979 61.016C240.555 59.864 240.907 58.68 241.035 57.464C241.227 56.248 241.387 54.552 241.515 52.376C241.515 51.288 241.547 50.456 241.611 49.88C241.867 44.312 241.995 37.976 241.995 30.872C241.995 28.12 241.931 23.864 241.803 18.104V17.144C241.803 12.664 239.883 9.176 236.043 6.68C232.203 4.184 227.531 2.936 222.027 2.936C218.443 2.936 215.019 3.54399 211.755 4.75999C208.491 5.976 205.835 7.8 203.787 10.232C201.739 12.664 200.715 15.64 200.715 19.16L200.811 21.944C200.875 22.392 200.907 23.096 200.907 24.056V24.248L206.571 24.152H210.795C212.331 24.152 213.259 24.12 213.579 24.056C214.091 22.52 215.243 21.208 217.035 20.12C218.891 18.968 220.715 18.392 222.507 18.392C223.979 18.392 225.163 18.84 226.059 19.736C226.955 20.632 227.403 22.072 227.403 24.056C227.403 26.36 226.667 27.832 225.195 28.472C223.723 29.048 221.611 29.336 218.859 29.336C218.603 29.336 217.899 29.368 216.747 29.432C215.659 29.496 214.763 29.656 214.059 29.912V30.008C214.123 30.456 214.155 31.032 214.155 31.736L214.059 35.192C213.931 36.856 213.867 38.072 213.867 38.84C213.867 39.992 213.899 40.888 213.963 41.528C214.027 42.168 214.219 42.744 214.539 43.256C215.627 43 217.003 42.872 218.667 42.872C221.227 42.872 223.339 43.448 225.003 44.6C226.667 45.688 227.499 47.32 227.499 49.496C227.499 51.416 226.923 52.856 225.771 53.816C224.683 54.776 223.435 55.256 222.027 55.256C220.363 55.256 218.699 54.648 217.035 53.432C215.371 52.216 214.283 50.808 213.771 49.208L213.579 49.112H212.331C211.563 49.112 209.739 49.272 206.859 49.592C205.067 49.912 203.499 50.072 202.155 50.072L201.099 49.976L200.907 50.072C201.035 51.096 201.163 52.632 201.291 54.68C201.483 57.816 201.771 60.28 202.155 62.072C202.603 63.8 203.531 65.368 204.939 66.776C205.323 67.288 206.283 67.896 207.819 68.6C209.355 69.24 211.307 69.816 213.675 70.328C216.043 70.84 218.635 71.096 221.451 71.096ZM287.056 36.728C287.248 36.728 287.344 36.792 287.344 36.92L287.536 36.728C288.688 36.024 291.28 35.672 295.312 35.672C297.744 35.672 300.624 35.8 303.952 36.056L307.696 36.248L308.848 36.344C308.848 36.664 308.912 37.272 309.04 38.168L310.768 38.264C310.832 38.84 310.992 40.568 311.248 43.448C311.504 46.328 311.632 48.952 311.632 51.32C311.632 55.48 311.376 58.744 310.864 61.112V61.016C310.288 66.328 307.888 70.04 303.664 72.152C299.44 74.328 294.288 75.416 288.208 75.416C283.984 75.416 280.272 74.36 277.072 72.248C273.936 70.136 271.504 67.288 269.776 63.704C268.112 60.12 267.28 56.152 267.28 51.8C266.64 46.424 266.32 41.144 266.32 35.96V30.776C266.32 25.4 266.736 20.76 267.568 16.856C268.464 12.888 270.48 9.528 273.616 6.776C276.752 4.024 281.424 2.648 287.632 2.648C291.856 2.648 295.728 3.544 299.248 5.336C302.832 7.064 305.68 9.528 307.792 12.728C309.904 15.864 310.96 19.512 310.96 23.672C310.96 23.928 310.96 24.568 310.96 25.592C310.96 26.616 310.704 27.384 310.192 27.896C309.744 28.408 308.976 28.664 307.888 28.664H304.24C303.792 28.664 302.96 28.696 301.744 28.76C300.592 28.76 298.96 28.6 296.848 28.28C296.784 28.088 296.72 27.832 296.656 27.512C296.592 27.192 296.432 26.968 296.176 26.84C295.984 26.648 295.568 26.488 294.928 26.36C294.416 24.76 294 23.608 293.68 22.904C293.36 22.2 292.816 21.592 292.048 21.08C291.28 20.568 290.192 20.312 288.784 20.312C288.656 20.312 288.272 20.312 287.632 20.312C286.992 20.312 286.48 20.568 286.096 21.08C285.776 21.528 285.456 22.296 285.136 23.384C283.92 27.416 283.312 33.304 283.312 41.048V45.176C283.312 47.8 283.44 50.072 283.696 51.992C283.952 53.912 284.464 55.576 285.232 56.984L286.384 57.272H286.288C286.544 57.336 286.96 57.368 287.536 57.368C289.2 57.368 290.64 57.08 291.856 56.504H291.76C292.656 56.12 293.296 55.608 293.68 54.968C294.064 54.264 294.416 52.952 294.736 51.032H292.911C291.312 51.032 290.064 50.872 289.168 50.552C289.04 49.848 288.88 49.4 288.688 49.208C288.56 49.016 288.336 48.888 288.016 48.824C287.76 48.76 287.504 48.696 287.248 48.632C286.992 46.712 286.864 44.696 286.864 42.584C286.864 39.576 286.832 37.624 286.768 36.728H287.056ZM287.728 37.88C287.856 38.712 287.92 39.512 287.92 40.28C287.92 41.048 287.92 41.528 287.92 41.72V44.408V45.656C287.92 46.616 287.984 47.384 288.112 47.96C288.24 48.088 288.592 48.152 289.168 48.152L293.872 48.056H294.544C294.928 48.056 295.184 48.184 295.312 48.44C295.504 48.632 295.6 49.08 295.6 49.784C295.6 53.304 294.864 55.608 293.392 56.696C291.92 57.784 289.904 58.328 287.344 58.328C284.592 58.328 282.736 56.92 281.776 54.104C280.816 51.288 280.336 47.8 280.336 43.64L280.432 39.128C280.432 34.456 280.688 30.104 281.2 26.072C281.712 21.976 282.416 19.48 283.312 18.584C283.824 18.072 284.304 17.752 284.752 17.624C285.264 17.496 285.936 17.432 286.768 17.432L289.168 17.528C290.832 17.528 292.176 18.36 293.2 20.024C294.288 21.688 295.12 23.512 295.696 25.496C297.68 25.752 299.344 25.88 300.688 25.88C305.296 25.88 307.664 25.72 307.792 25.4L307.888 24.824C308.016 23.416 308.08 22.392 308.08 21.752C308.08 15.992 306.16 11.544 302.32 8.408C298.48 5.208 293.584 3.608 287.632 3.608C281.616 3.608 277.072 4.888 274 7.44799C271.312 9.368 269.488 12.408 268.528 16.568C267.632 20.664 267.184 25.24 267.184 30.296L267.28 36.728C267.28 43.832 267.6 49.816 268.24 54.68C268.88 59.48 270.576 63.672 273.328 67.256C276.144 70.776 280.464 72.536 286.288 72.536C291.984 72.536 296.88 71.544 300.976 69.56C305.072 67.576 307.408 64.056 307.984 59C308.496 56.632 308.752 53.432 308.752 49.4C308.752 46.456 308.496 42.424 307.984 37.304L307.696 37.208L304.528 37.016C301.072 36.76 297.936 36.632 295.12 36.632C291.408 36.632 289.04 36.952 288.016 37.592L287.728 37.784V37.88ZM328.378 23.96C329.21 24.088 329.722 24.216 329.914 24.344C333.562 23.192 337.05 22.616 340.378 22.616C341.978 22.616 343.354 22.712 344.506 22.904C345.658 23.032 346.234 23.16 346.234 23.288V24.728C347.514 24.92 348.154 25.08 348.154 25.208L348.058 33.368C347.994 34.456 347.962 35.864 347.962 37.592C347.962 38.616 348.058 40.568 348.25 43.448L346.042 42.68L346.138 42.776L344.986 42.392L345.082 42.488C342.522 41.848 340.794 41.464 339.898 41.336C339.066 41.208 338.33 41.144 337.69 41.144C337.05 41.144 336.602 41.144 336.346 41.144C334.17 41.144 332.538 41.592 331.45 42.488C330.426 43.32 329.914 44.856 329.914 47.096C330.17 54.968 330.298 63.352 330.298 72.248V73.4C328.25 73.976 326.362 74.264 324.634 74.264C323.61 74.264 322.842 74.232 322.33 74.168L319.45 74.072H318.298C317.338 74.072 316.41 74.136 315.514 74.264V72.152L313.594 72.344L313.498 54.2C313.37 46.136 313.306 40.024 313.306 35.864C313.306 32.472 313.37 27.896 313.498 22.136C315.034 22.328 316.474 22.424 317.818 22.424C318.33 22.424 319.162 22.36 320.314 22.232C321.53 22.04 323.162 21.944 325.21 21.944C327.322 21.944 328.378 22.328 328.378 23.096V23.96ZM327.418 23.096C327.418 22.968 327.034 22.904 326.266 22.904C324.154 22.904 322.362 23 320.89 23.192C319.418 23.32 318.394 23.384 317.818 23.384H316.666C315.834 23.384 315.098 23.32 314.458 23.192C314.33 25.176 314.266 28.088 314.266 31.928V37.784C314.266 41.688 314.33 47.352 314.458 54.776L314.554 71.288C315.322 71.224 316.378 71.192 317.722 71.192L322.906 71.288C324.442 71.288 325.946 71.096 327.418 70.712V70.328C327.418 66.936 327.354 62.552 327.226 57.176C327.098 51.8 327.034 47.608 327.034 44.6C327.034 42.232 327.642 40.6 328.858 39.704C330.138 38.744 331.994 38.264 334.426 38.264C334.81 38.264 335.354 38.264 336.058 38.264C336.826 38.2 337.69 38.264 338.65 38.456C339.674 38.584 340.922 38.84 342.394 39.224C342.714 39.352 343.034 39.48 343.354 39.608C343.738 39.672 344.09 39.768 344.41 39.896L345.274 40.184C345.21 39.48 345.178 38.456 345.178 37.112V33.56L345.274 23.288C345.274 23.16 344.602 23.096 343.258 23.096C340.826 23.096 337.946 23.448 334.618 24.152C331.354 24.792 328.986 25.528 327.514 26.36C327.514 25.912 327.482 25.592 327.418 25.4C327.418 25.208 327.418 25.048 327.418 24.92V23.096ZM391.274 25.016C391.402 26.04 391.466 26.84 391.466 27.416V28.376C391.402 30.104 391.37 32.6 391.37 35.864L391.466 46.616C391.53 49.048 391.562 52.664 391.562 57.464C391.562 61.24 391.466 65.112 391.274 69.08V69.752C391.274 71.096 391.178 72.088 390.986 72.728C390.794 73.368 390.218 73.784 389.258 73.976H387.914C387.018 73.976 385.866 73.912 384.458 73.784L381.674 73.688C381.226 73.688 380.554 73.752 379.658 73.88L377.546 73.976C376.522 73.72 375.85 73.08 375.53 72.056C374.698 71.736 374.186 71.384 373.994 71C370.666 73.048 367.37 74.072 364.106 74.072C360.714 74.072 357.706 72.6 355.082 69.656C352.522 66.712 350.538 63.032 349.13 58.616C347.786 54.136 347.114 49.752 347.114 45.464C347.114 40.6 347.946 36.44 349.61 32.984C351.274 29.464 353.546 26.808 356.426 25.016C359.37 23.224 362.666 22.328 366.314 22.328C368.106 22.328 369.482 22.456 370.442 22.712C371.466 22.968 372.394 23.608 373.226 24.632C373.29 24.312 373.354 23.8 373.418 23.096C373.482 22.392 373.642 21.944 373.898 21.752C374.154 21.56 374.57 21.464 375.146 21.464C375.722 21.464 376.234 21.528 376.682 21.656C377.194 21.72 377.674 21.752 378.122 21.752H378.986C380.65 21.752 383.818 21.912 388.49 22.232L389.354 23.096L389.45 24.152H390.41L391.274 25.016ZM377.93 22.712L375.338 22.616C374.698 22.616 374.314 23.032 374.186 23.864C374.058 24.632 373.994 25.752 373.994 27.224V27.704C373.418 26.296 372.682 25.272 371.786 24.632C370.89 23.992 369.898 23.608 368.81 23.48C367.722 23.352 366.186 23.288 364.202 23.288C361.194 23.352 358.442 24.376 355.946 26.36C353.514 28.28 351.594 30.904 350.186 34.232C348.778 37.56 348.074 41.304 348.074 45.464C348.074 49.24 348.586 53.112 349.61 57.08C350.634 61.048 352.202 64.408 354.314 67.16C356.49 69.848 359.114 71.192 362.186 71.192C364.362 71.192 366.602 70.68 368.906 69.656C371.274 68.568 373.258 67.224 374.858 65.624C374.858 66.008 374.794 66.552 374.666 67.256C374.538 67.896 374.474 68.472 374.474 68.984C374.474 70.072 374.858 70.776 375.626 71.096C376.138 71.096 376.842 71.032 377.738 70.904L379.754 70.808L382.922 70.904C384.33 71.032 385.354 71.096 385.994 71.096H387.146C387.658 70.968 387.978 70.712 388.106 70.328C388.298 69.88 388.394 69.272 388.394 68.504V67.16C388.65 63.384 388.778 59.192 388.778 54.584L388.682 44.024C388.554 39.288 388.49 35.704 388.49 33.272C388.49 30.264 388.522 27.992 388.586 26.456V25.496C388.586 24.984 388.522 24.216 388.394 23.192C386.602 23.064 383.466 22.904 378.986 22.712H377.93ZM369.386 36.152C370.986 36.152 372.106 36.312 372.746 36.632C373.45 36.888 373.898 37.496 374.09 38.456C374.282 39.352 374.378 40.888 374.378 43.064V48.344C374.378 50.648 374.25 52.44 373.994 53.72C373.802 55 373.258 55.992 372.362 56.696C371.53 57.4 370.218 57.752 368.426 57.752C365.802 57.752 363.722 56.76 362.186 54.776C360.65 52.792 359.882 50.328 359.882 47.384C359.882 45.272 360.074 43.576 360.458 42.296C360.842 40.568 361.802 39.128 363.338 37.976C364.874 36.76 366.89 36.152 369.386 36.152ZM363.338 44.504C362.954 45.784 362.762 47.384 362.762 49.304C362.762 54.296 364.65 56.792 368.426 56.792C370.026 56.792 371.178 56.44 371.882 55.736C372.586 55.032 373.002 54.072 373.13 52.856C373.322 51.64 373.418 49.784 373.418 47.288V44.792L373.514 41.912C373.514 40.888 373.354 40.152 373.034 39.704C372.778 39.256 372.202 39.032 371.306 39.032C369.066 39.032 367.274 39.544 365.93 40.568C364.586 41.592 363.722 42.872 363.338 44.408V44.504ZM429.73 27.896C432.546 30.2 434.434 33.336 435.394 37.304C436.354 41.208 436.994 46.2 437.314 52.28C437.314 57.272 436.61 61.656 435.202 65.432C433.794 69.144 431.682 71.544 428.866 72.632C426.434 73.592 423.458 74.072 419.938 74.072C418.274 74.072 416.642 73.912 415.042 73.592C413.442 73.336 412.13 72.984 411.106 72.536L411.298 82.232C411.298 83.704 411.234 85.528 411.106 87.704L410.818 91.352V92.408C410.818 92.728 410.018 93.048 408.418 93.368C406.882 93.688 405.186 93.848 403.33 93.848C400.642 93.848 398.466 93.688 396.802 93.368V91.736L394.882 91.448V84.248C394.882 78.36 394.754 69.848 394.498 58.712C394.434 55.896 394.37 52.504 394.306 48.536C394.242 44.504 394.21 39.896 394.21 34.712C394.21 28.824 394.242 24.632 394.306 22.136L399.778 22.04C400.994 21.976 402.754 21.944 405.058 21.944C406.402 21.944 407.426 22.072 408.13 22.328C408.898 22.584 409.282 23.096 409.282 23.864V24.056C410.178 24.056 410.626 24.152 410.626 24.344C412.29 22.936 414.402 22.232 416.962 22.232C422.274 22.232 426.53 24.12 429.73 27.896ZM426.658 69.848C429.346 68.888 431.298 66.616 432.514 63.032C433.794 59.448 434.434 55.224 434.434 50.36C434.242 44.664 433.762 39.96 432.994 36.248C432.226 32.536 430.562 29.432 428.002 26.936C425.442 24.44 421.602 23.192 416.482 23.192C413.09 23.192 410.722 24.6 409.378 27.416C409.186 27.672 409.058 27.8 408.994 27.8C408.738 27.8 408.482 27.064 408.226 25.592C408.034 24.12 408.034 23.32 408.226 23.192C407.586 23.064 406.658 23 405.442 23L395.266 23.096C395.202 25.4 395.17 28.92 395.17 33.656C395.17 38.904 395.202 43.544 395.266 47.576C395.33 51.608 395.394 55 395.458 57.752C395.714 69.272 395.842 78.104 395.842 84.248V90.584C397.186 90.84 399.042 90.968 401.41 90.968C403.01 90.968 404.482 90.904 405.826 90.776C407.234 90.712 407.938 90.616 407.938 90.488V89.432L408.13 86.072C408.258 84.856 408.322 82.936 408.322 80.312V75.896C408.322 73.08 408.29 70.68 408.226 68.696C408.354 69.4 409.378 70.008 411.298 70.52C413.218 70.968 415.458 71.192 418.018 71.192C421.602 71.192 424.482 70.744 426.658 69.848ZM414.754 35.096C417.378 35.096 419.49 36.344 421.09 38.84C422.69 41.336 423.49 44.28 423.49 47.672C423.49 50.168 423.266 52.024 422.818 53.24C422.114 57.784 419.074 60.056 413.698 60.056C411.778 60.056 410.434 59.832 409.666 59.384C408.898 58.872 408.386 57.912 408.13 56.504C407.938 55.096 407.842 52.6 407.842 49.016C407.842 45.816 407.97 43.256 408.226 41.336C408.546 39.416 409.186 37.912 410.146 36.824C411.17 35.672 412.706 35.096 414.754 35.096ZM422.53 47.672C422.53 45.112 422.05 42.872 421.09 40.952C420.194 38.968 418.722 37.976 416.674 37.976C414.882 37.976 413.538 38.52 412.642 39.608C411.81 40.632 411.266 42.04 411.01 43.832C410.818 45.56 410.722 47.928 410.722 50.936C410.722 52.792 410.754 54.424 410.818 55.832C410.882 57.176 411.01 58.2 411.202 58.904C411.586 59.032 412.034 59.096 412.546 59.096C413.122 59.096 413.506 59.096 413.698 59.096C418.562 59.096 421.282 57.112 421.858 53.144L421.954 52.952C422.338 52.056 422.53 51 422.53 49.784C422.53 48.568 422.53 47.864 422.53 47.672ZM453.334 2.168C454.23 2.232 454.806 2.648 455.062 3.41599C455.382 4.184 455.542 5.464 455.542 7.256L455.446 13.976L455.35 25.304C458.166 23.448 461.494 22.52 465.334 22.52C467.382 22.52 469.366 22.872 471.286 23.576C473.206 24.28 474.646 25.368 475.606 26.84L476.758 27.704C478.422 28.984 479.254 34.36 479.254 43.832C479.254 46.328 479.19 50.072 479.062 55.064C478.934 59.928 478.87 63.48 478.87 65.72C478.87 68.28 478.934 70.904 479.062 73.592C476.758 73.912 474.07 74.072 470.998 74.072H465.238C465.174 73.624 465.142 72.984 465.142 72.152H463.318C463.126 70.168 463.03 66.296 463.03 60.536V55.736C463.03 52.28 462.966 49.496 462.838 47.384C462.71 45.208 462.358 43.384 461.781 41.912C461.333 41.72 460.662 41.624 459.766 41.624C457.846 41.624 456.502 42.264 455.734 43.544C455.03 44.824 454.678 47.288 454.678 50.936C454.678 52.664 454.742 55.064 454.87 58.136C454.998 61.336 455.062 63.672 455.062 65.144C455.062 67.896 454.934 70.296 454.678 72.344V73.4C452.438 73.976 450.582 74.264 449.109 74.264C448.214 74.264 447.51 74.232 446.998 74.168L444.694 74.072H443.638C442.678 74.072 441.75 74.136 440.854 74.264V72.152L438.934 72.344C438.934 64.984 438.902 58.936 438.838 54.2L438.742 25.304V14.36C438.742 7.576 438.806 2.968 438.934 0.535997C440.47 0.727999 441.91 0.823999 443.254 0.823999C443.766 0.823999 444.598 0.727999 445.75 0.535997C446.966 0.343996 448.598 0.247995 450.646 0.247995C452.374 0.247995 453.27 0.631996 453.334 1.4V2.168ZM452.47 2.36C452.47 1.848 452.406 1.528 452.278 1.4C452.15 1.208 451.798 1.112 451.222 1.112C449.43 1.112 447.414 1.272 445.174 1.592C444.15 1.72 443.51 1.784 443.254 1.784H442.102C441.27 1.784 440.534 1.72 439.894 1.592C439.766 9.272 439.702 16.632 439.702 23.672V36.92L439.798 58.424C439.862 61.752 439.894 66.04 439.894 71.288C440.662 71.224 441.686 71.192 442.966 71.192L447.574 71.288C448.918 71.288 450.326 71.096 451.798 70.712V70.328C452.054 68.216 452.182 65.848 452.182 63.224C452.182 61.56 452.118 59.128 451.99 55.928C451.862 52.728 451.798 50.296 451.798 48.632C451.798 44.792 452.278 42.2 453.238 40.856C454.198 39.448 455.734 38.744 457.846 38.744C460.15 38.744 461.622 39.448 462.262 40.856C462.966 42.2 463.382 43.736 463.51 45.464C463.638 47.128 463.734 48.28 463.798 48.92C463.926 49.88 463.99 51.416 463.99 53.528V56.888V63.992V67.064C463.99 68.984 464.054 70.36 464.182 71.192L469.75 71.288C472.054 71.288 474.198 71.128 476.182 70.808C476.054 68.376 475.99 66.36 475.99 64.76C475.99 62.52 476.054 58.904 476.182 53.912C476.31 48.664 476.374 44.824 476.374 42.392C476.374 37.976 476.214 34.424 475.894 31.736C475.574 28.984 474.998 27.224 474.166 26.456C471.99 24.472 469.014 23.48 465.238 23.48C463.19 23.48 461.366 23.8 459.766 24.44C458.166 25.08 456.662 25.816 455.254 26.648C453.846 27.416 452.918 27.928 452.47 28.184V4.088V2.36ZM496.845 3.032H498.765L498.861 8.216C498.989 11.928 499.053 14.712 499.053 16.568C498.349 17.656 496.813 18.2 494.445 18.2C493.869 18.2 492.621 18.136 490.701 18.008H490.797L487.533 17.912C486.253 17.912 485.133 17.944 484.173 18.008V15.992L482.253 16.088C482.253 14.872 482.189 13.048 482.061 10.616C481.933 7.672 481.869 5.08 481.869 2.84V0.823999L496.845 1.112V3.032ZM482.829 3.32C482.829 5.304 482.893 7.64 483.021 10.328C483.149 12.504 483.213 14.072 483.213 15.032H484.845C485.805 15.032 487.181 15.096 488.973 15.224L492.429 15.32C494.541 15.32 495.789 15 496.173 14.36C496.173 12.312 496.109 9.496 495.981 5.912C495.917 4.76 495.885 3.48 495.885 2.07199L482.829 1.784V3.32ZM497.229 23.864L499.149 24.152C499.149 27.8 499.085 33.336 498.957 40.76C498.765 46.328 498.669 52.024 498.669 57.848C498.669 63.544 498.797 68.472 499.053 72.632C498.541 73.144 497.837 73.496 496.941 73.688C496.045 73.88 494.893 73.976 493.485 73.976C491.629 73.976 490.221 73.944 489.261 73.88H489.357L487.053 73.784C485.645 73.784 484.461 73.944 483.501 74.264C483.501 73.816 483.565 73.016 483.693 71.864C482.733 71.992 482.029 72.152 481.581 72.344C481.901 68.056 482.061 63.64 482.061 59.096C482.061 56.536 481.997 52.696 481.869 47.576C481.741 42.456 481.677 38.552 481.677 35.864C481.677 31.384 481.901 26.68 482.349 21.752C482.797 21.752 483.117 21.72 483.309 21.656L484.845 21.464C485.357 21.464 486.317 21.528 487.725 21.656C489.197 21.72 490.765 21.752 492.429 21.752H494.637L497.229 22.232V23.864ZM492.429 22.712C490.317 22.712 488.301 22.648 486.381 22.52L483.597 22.424H483.213V22.52C482.829 25.912 482.637 30.296 482.637 35.672C482.637 38.104 482.701 41.944 482.829 47.192C482.957 52.44 483.021 56.44 483.021 59.192C483.021 63.544 482.893 67.48 482.637 71C482.765 70.936 483.277 70.904 484.173 70.904C485.517 70.904 486.605 70.936 487.437 71L491.757 71.096C493.165 71.096 494.189 71.064 494.829 71C495.533 70.936 495.981 70.744 496.173 70.424C495.917 65.88 495.789 60.728 495.789 54.968C495.789 48.696 495.885 42.488 496.077 36.344C496.205 30.328 496.269 25.88 496.269 23V22.712H492.429ZM541.872 23.864C541.872 25.144 541.744 25.816 541.488 25.88L538.896 33.08L538.128 35.096C536.016 40.984 534.608 45.72 533.904 49.304C534.672 53.016 535.952 57.624 537.744 63.128C539.216 67.544 540.304 71.192 541.008 74.072C539.664 73.88 538.672 73.784 538.032 73.784H535.728L533.328 73.88C528.464 73.88 525.712 73.752 525.072 73.496L524.304 71.768L523.152 71.576C522.512 70.232 521.904 68.344 521.328 65.912C521.2 65.464 520.848 64.28 520.272 62.36L519.504 65.336C518.8 68.856 517.84 71.736 516.624 73.976H512.688L509.04 74.072H508.368C506.64 74.072 505.232 74.008 504.144 73.88C503.056 73.816 502 73.56 500.976 73.112L501.264 71.768C500.496 71.704 499.76 71.512 499.056 71.192C499.568 68.824 500.848 64.76 502.896 59C503.216 58.104 503.792 56.408 504.624 53.912C505.456 51.416 506.128 49.208 506.64 47.288C506 44.472 505.2 41.688 504.24 38.936C503.344 36.12 502.064 32.472 500.4 27.992L498.288 22.424C500.912 22.168 503.568 22.04 506.256 22.04C511.824 22.04 514.864 22.296 515.376 22.808C515.504 23.512 515.664 23.96 515.856 24.152C516.112 24.344 516.368 24.472 516.624 24.536C516.944 24.536 517.168 24.6 517.296 24.728C518.192 29.016 518.992 32.216 519.696 34.328L522.864 22.328C525.616 22.072 531.312 21.944 539.952 21.944C539.952 23.096 539.856 23.736 539.664 23.864H541.872ZM534.672 22.904C528.528 22.904 524.848 23 523.632 23.192C523.184 24.536 522.544 26.872 521.712 30.2C520.56 34.872 519.664 38.008 519.024 39.608C518.192 37.304 517.072 33.336 515.664 27.704L514.512 23.288C514.32 23.224 513.904 23.16 513.264 23.096C512.688 23.032 511.984 23 511.152 23H506.256C504.656 23 502.416 23.096 499.536 23.288C500.048 24.568 500.496 25.752 500.88 26.84C502.544 30.936 503.92 34.616 505.008 37.88C506.16 41.08 507.024 44.216 507.6 47.288C506.704 50.744 505.328 55.16 503.472 60.536C501.68 65.784 500.592 69.144 500.208 70.616C501.168 71 502.48 71.192 504.144 71.192C505.872 71.192 506.864 71.192 507.12 71.192H508.464L512.784 71.096H514.128C514.896 69.56 515.728 67 516.624 63.416C516.752 62.904 517.04 61.784 517.488 60.056C518 58.328 518.576 56.792 519.216 55.448V55.544C519.792 56.824 520.304 58.328 520.752 60.056C521.2 61.72 521.456 62.744 521.52 63.128C522.416 66.712 523.184 69.24 523.824 70.712H523.92C524.304 70.904 526.288 71 529.872 71H531.408L536.112 70.904H536.976C537.424 70.904 537.712 70.936 537.84 71C537.456 69.4 536.912 67.544 536.208 65.432C535.568 63.256 535.12 61.752 534.864 60.92C533.008 55.224 531.728 50.712 531.024 47.384C531.472 44.888 532.08 42.456 532.848 40.088C533.616 37.656 534.672 34.648 536.016 31.064C536.336 30.168 536.752 29.048 537.264 27.704C537.776 26.36 538.32 24.792 538.896 23L538.992 22.904H534.672Z" fill="white"/>
</g>
<defs>
<filter id="filter0_d_1_5" x="0.0159912" y="0.247997" width="545.856" height="101.6" filterUnits="userSpaceOnUse" color-interpolation-filters="sRGB">
<feFlood flood-opacity="0" result="BackgroundImageFix"/>
<feColorMatrix in="SourceAlpha" type="matrix" values="0 0 0 0 0 0 0 0 0 0 0 0 0 0 0 0 0 0 127 0" result="hardAlpha"/>
<feOffset dy="4"/>
<feGaussianBlur stdDeviation="2"/>
<feComposite in2="hardAlpha" operator="out"/>
<feColorMatrix type="matrix" values="0 0 0 0 0 0 0 0 0 0 0 0 0 0 0 0 0 0 0.25 0"/>
<feBlend mode="normal" in2="BackgroundImageFix" result="effect1_dropShadow_1_5"/>
<feBlend mode="normal" in="SourceGraphic" in2="effect1_dropShadow_1_5" result="shape"/>
</filter>
</defs>
</svg>
